<svg width="50" height="39" viewBox="0 0 50 39" fill="none" xmlns="http://www.w3.org/2000/svg">
<path d="M43.4474 5.35584C43.5199 5.1462 43.8037 5.13932 43.9185 5.33823L48.7115 13.6399C49.3326 14.7157 49.0364 16.0504 48.0503 16.6197L32.5701 25.5572C31.584 26.1265 30.28 25.7157 29.6589 24.6399L24.8683 16.3423C24.7511 16.1393 24.8976 15.9032 25.1191 15.9431C26.3604 16.1682 27.9836 16.4273 33.516 17.2439C34.6621 17.4158 36.7462 17.9662 38.0625 17.1954C39.398 16.4406 39.973 14.317 40.3816 13.2801C42.4405 8.08058 43.0216 6.54344 43.4474 5.35584ZM37.3102 15.8923C38.1829 15.4101 38.732 13.4909 39.0712 12.6347C41.7522 5.87445 41.9312 5.31646 42.5074 3.68476C42.6178 3.37748 42.5802 3.02026 42.4068 2.71986L41.9615 1.94856C41.3404 0.872791 40.0364 0.461914 39.0503 1.03125L23.5701 9.96875C22.584 10.5381 22.2878 11.8728 22.9089 12.9486L23.3542 13.7199C23.5277 14.0203 23.8159 14.2273 24.1395 14.2894C25.8384 14.6022 26.4134 14.7303 33.6085 15.7886C34.5196 15.9229 36.4562 16.407 37.3102 15.8923Z" fill="white"/>
<line x1="12.1762" y1="36.6746" x2="25.5934" y2="28.9282" stroke="white" stroke-width="2" stroke-linecap="round" stroke-linejoin="round"/>
<line x1="1.36603" y1="28.022" x2="14.2543" y2="20.5809" stroke="white" stroke-width="2" stroke-linecap="round" stroke-linejoin="round"/>
<line x1="15.7625" y1="27.3082" x2="24.0071" y2="22.5482" stroke="white" stroke-width="2" stroke-linecap="round" stroke-linejoin="round"/>
</svg>
